<svg xmlns="http://www.w3.org/2000/svg" viewBox="0 0 1280 320" width="1280" height="320">
  <defs>
    <linearGradient id="bannerBg" x1="0%" y1="0%" x2="100%" y2="100%">
      <stop offset="0%" stop-color="#0a0f1c"/>
      <stop offset="100%" stop-color="#111827"/>
    </linearGradient>
    <linearGradient id="bannerGrad" x1="0%" y1="0%" x2="100%" y2="100%">
      <stop offset="0%" stop-color="#3b82f6"/>
      <stop offset="100%" stop-color="#06b6d4"/>
    </linearGradient>
    <linearGradient id="bannerTextGrad" x1="0%" y1="0%" x2="100%" y2="0%">
      <stop offset="0%" stop-color="#e2e8f0"/>
      <stop offset="60%" stop-color="#60a5fa"/>
    </linearGradient>
  </defs>
  <rect width="1280" height="320" fill="url(#bannerBg)"/>
  <g opacity="0.04" stroke="#3b82f6" stroke-width="0.5" fill="none">
    <line x1="0" y1="40" x2="1280" y2="40"/><line x1="0" y1="80" x2="1280" y2="80"/>
    <line x1="0" y1="120" x2="1280" y2="120"/><line x1="0" y1="160" x2="1280" y2="160"/>
    <line x1="0" y1="200" x2="1280" y2="200"/><line x1="0" y1="240" x2="1280" y2="240"/>
    <line x1="0" y1="280" x2="1280" y2="280"/>
    <line x1="160" y1="0" x2="160" y2="320"/><line x1="320" y1="0" x2="320" y2="320"/>
    <line x1="480" y1="0" x2="480" y2="320"/><line x1="640" y1="0" x2="640" y2="320"/>
    <line x1="800" y1="0" x2="800" y2="320"/><line x1="960" y1="0" x2="960" y2="320"/>
    <line x1="1120" y1="0" x2="1120" y2="320"/>
  </g>
  <circle cx="200" cy="160" r="200" fill="#3b82f6" opacity="0.03"/>
  <circle cx="1080" cy="160" r="200" fill="#06b6d4" opacity="0.03"/>
  <polygon points="180,100 230,125 230,175 180,200 130,175 130,125" fill="none" stroke="url(#bannerGrad)" stroke-width="3"/>
  <text x="180" y="160" text-anchor="middle" font-family="'Inter','Segoe UI',sans-serif" font-weight="800" font-size="36" fill="url(#bannerGrad)">SG</text>
  <text x="280" y="140" font-family="'Inter','Segoe UI',sans-serif" font-weight="800" font-size="48" fill="url(#bannerTextGrad)">Suresh Gupta</text>
  <text x="280" y="170" font-family="'Inter','Segoe UI',sans-serif" font-weight="400" font-size="16" fill="#64748b" letter-spacing="1">Kotha C N Venkata Suresh Gupta</text>
  <text x="280" y="210" font-family="'JetBrains Mono','Fira Code',monospace" font-weight="400" font-size="18" fill="#94a3b8">Technical Lead  |  DevOps Engineer  |  Project Manager</text>
  <g transform="translate(280, 235)">
    <rect x="0" y="0" width="60" height="28" rx="14" fill="none" stroke="#3b82f6" stroke-width="1" opacity="0.4"/>
    <text x="30" y="19" text-anchor="middle" font-family="'JetBrains Mono',monospace" font-size="11" fill="#60a5fa">AWS</text>
    <rect x="72" y="0" width="68" height="28" rx="14" fill="none" stroke="#3b82f6" stroke-width="1" opacity="0.4"/>
    <text x="106" y="19" text-anchor="middle" font-family="'JetBrains Mono',monospace" font-size="11" fill="#60a5fa">Azure</text>
    <rect x="152" y="0" width="56" height="28" rx="14" fill="none" stroke="#3b82f6" stroke-width="1" opacity="0.4"/>
    <text x="180" y="19" text-anchor="middle" font-family="'JetBrains Mono',monospace" font-size="11" fill="#60a5fa">Java</text>
    <rect x="220" y="0" width="68" height="28" rx="14" fill="none" stroke="#3b82f6" stroke-width="1" opacity="0.4"/>
    <text x="254" y="19" text-anchor="middle" font-family="'JetBrains Mono',monospace" font-size="11" fill="#60a5fa">K8s</text>
    <rect x="300" y="0" width="96" height="28" rx="14" fill="none" stroke="#3b82f6" stroke-width="1" opacity="0.4"/>
    <text x="348" y="19" text-anchor="middle" font-family="'JetBrains Mono',monospace" font-size="11" fill="#60a5fa">Terraform</text>
    <rect x="408" y="0" width="76" height="28" rx="14" fill="none" stroke="#3b82f6" stroke-width="1" opacity="0.4"/>
    <text x="446" y="19" text-anchor="middle" font-family="'JetBrains Mono',monospace" font-size="11" fill="#60a5fa">Python</text>
  </g>
</svg>
